<?xml version="1.0" encoding="UTF-8"?>
<svg id="Layer_1" data-name="Layer 1" xmlns="http://www.w3.org/2000/svg" viewBox="0 0 2050.199951 485.799988">
  <defs>
    <style>
      .cls-1 {
        fill: #00aeef;
      }

      .cls-2 {
        fill: #c8cdd1;
      }
    </style>
  </defs>
  <g id="Layer_1-2" data-name="Layer 1">
    <g>
      <path class="cls-2" d="M488.479022,75.23198c0-20.627642-8.867969-41.062498-25.35078-53.786089-15.326138-11.856074-35.664612-16.00088-54.171665-9.639084-9.831878,3.373679-18.507054,9.349912-25.543573,16.964789-1.445863,1.542254-367.345507,396.648327-369.176928,398.672541-2.602553,2.891725-5.012324,5.783451-6.554577,9.349924-3.47007,7.807664-3.180898,16.868397.578345,24.483268,4.337588,8.675176,13.109155,14.65142,22.748239,15.615328,8.964349.867512,17.832308-2.602565,23.904926-9.15713-5.012325,5.397893,366.767171-395.395249,372.357828-401.178699,1.349466-1.349473,3.66284-.867519,3.855634,1.349473.096397,1.927817.096397,349.416797,0,351.441011-.096397,1.83142-2.12061,2.988122-3.566473,1.542259-.192793-.096397-128.681775-138.89921-129.645683-140.055912-2.988122-3.470076-6.747359-6.265405-11.084947-8.096825-7.807664-3.180886-16.868397-2.795329-24.386871,1.156702-7.711267,4.048427-13.205543,11.566901-14.747802,20.14568-1.542259,8.482382.867512,17.253955,6.458184,23.80855.578351.674748,129.452919,139.670325,132.248219,142.369286,13.687511,13.205557,32.96568,19.374565,51.761894,15.518932,18.410657-3.759237,34.604307-16.675604,42.893925-33.447634h0c4.915939-9.831878,7.32571-20.820428,7.32571-31.808978V75.23198h.096397Z"/>
      <path class="cls-1" d="M170.389256,215.962603c-7.422092-.481954-14.651405-3.855634-19.856519-10.024642L12.019098,56.14659C1.89806,44.001345,3.343922,25.879868,15.296386,15.662438c5.879842-5.012324,13.109155-7.229313,20.242077-6.84375,7.422094.481954,14.651407,3.855634,19.856514,10.024647l138.513638,149.791358c10.121038,12.048855,8.675176,30.170337-3.277283,40.387757-5.879847,5.012321-13.10916,7.229313-20.242077,6.747359h0v.192793Z"/>
      <path class="cls-1" d="M722.323242,118.415073h57.641712l78.17295,236.832298h-45.689283l-18.892582-58.605621h-90.414599l-18.507054,58.605621h-41.448062l79.136858-236.832298h.000059ZM713.358846,264.543582h69.883361l-34.797071-109.981957-35.08629,109.981957Z"/>
      <path class="cls-1" d="M870.957874,182.033029h40.098567v32.483711c10.892153-21.880718,27.182229-34.7971,56.292276-35.086261v37.39965c-35.08629.289175-56.292276,11.566901-56.292276,48.3882v90.125438h-40.098567v-173.214341h0v-.096397Z"/>
      <path class="cls-1" d="M973.324961,270.808987v-2.698932c0-54.94278,39.03835-89.73988,87.426506-89.73988s74.510168,17.253955,79.136858,64.87104h-38.749072c-3.277312-23.230199-18.506995-32.772887-39.71298-32.772887s-47.038778,21.205985-47.038778,56.966979v2.698932c0,37.785222,18.506995,57.641712,48.002687,57.641712s39.423878-12.627206,41.737282-37.110474h36.724888c-2.988093,39.713039-33.158473,67.859147-80.197134,67.859147s-87.426506-32.483726-87.426506-87.812064h0l.09625.096426Z"/>
      <path class="cls-1" d="M1150.491318,270.423429v-2.698932c0-53.689696,36.724888-89.450705,86.07707-89.450705s81.835849,25.543573,81.835849,87.426491v11.566901h-126.850325c1.349495,32.772887,17.928673,51.376307,47.713467,51.376307s36.724888-9.639084,39.71298-26.507482h38.749072c-5.590716,36.435727-35.08629,56.292246-79.522445,56.292246s-87.812034-33.447634-87.812034-88.101224h0l.096367.096397ZM1278.691139,250.566924c-2.024184-29.784765-17.253984-43.086704-42.026384-43.086704s-40.387787,16.193665-44.339788,43.086704h86.462539-.096367Z"/>
      <path class="cls-1" d="M1329.392698,301.268499h37.785163c2.024184,17.543145,10.892212,27.856948,34.411484,27.856948s31.134289-7.614871,31.134289-22.169894-11.566901-19.567329-37.110474-23.80855c-45.689283-7.32571-62.55768-20.242077-62.55768-52.629406s32.483667-51.954658,64.871084-51.954658,63.617956,13.205543,67.859177,52.340231h-37.110474c-3.277312-15.904489-12.24159-23.230199-30.748702-23.230199s-27.47139,8.289618-27.47139,20.531252,8.289589,17.54313,35.760979,22.169894c40.773374,6.265405,64.871084,16.19365,64.871084,53.014963s-24.868884,55.328338-69.208672,55.328338-70.847269-20.531238-72.485867-57.256155h0v-.192764Z"/>
      <path class="cls-1" d="M1483.039725,130.656715c0-13.205543,10.602993-23.230192,23.808491-23.230192s23.808491,9.92826,23.808491,23.230192-10.602993,22.844634-23.808491,22.844634-23.808491-9.92826-23.808491-22.844634ZM1487.377313,182.033029h40.098567v173.214341h-40.098567v-173.214341h0Z"/>
      <path class="cls-1" d="M1547.910809,292.97888v-110.945866h40.098567v106.319117c0,26.121924,10.892212,38.074383,34.122382,38.074383s40.387787-13.880275,40.387787-41.448062v-103.041805h40.098567v173.214327h-40.098567v-27.182229c-8.578809,16.868397-26.796701,30.459512-54.94278,30.459512s-59.569588-19.567329-59.569588-65.545773h0l-.096367.096397Z"/>
      <path class="cls-1" d="M1723.43851,182.033029h40.098567v26.507482c8.289589-16.193665,27.182171-30.170337,52.629377-30.170337s40.387787,9.639084,48.966595,31.134245c13.205498-21.495161,37.110474-31.134245,58.605679-31.134245,31.808978,0,57.641771,19.567344,57.641771,67.280811v109.596385h-40.098567v-106.993835c0-25.543573-10.892212-36.435741-30.748702-36.435741s-38.074383,13.205543-38.074383,39.713024v103.620156h-40.098567v-106.993835c0-25.543573-11.277682-36.435741-30.748702-36.435741s-38.074383,13.205543-38.074383,39.713024v103.620156h-40.098567v-173.214341h0l-.000118.192793Z"/>
    </g>
  </g>
  <path class="cls-1" d="M1991.582656,144.629639c0-14.617668,11.768189-26.502573,26.748079-26.502573,15.092582,0,26.619289,11.764164,26.619289,26.385857,0,14.855125-11.768189,26.385857-26.619289,26.385857-14.85915,0-26.748079-11.409992-26.748079-26.269141ZM2040.080152,144.512923c0-12.955472-9.152141-21.870157-21.749416-21.870157-12.718015,0-21.870157,9.031401-21.870157,21.986873,0,13.076213,9.627055,21.753441,21.870157,21.753441,12.235053,0,21.749416-8.914685,21.749416-21.870157ZM2008.816372,131.199253h9.747795c6.415353,0,10.343449,2.616047,10.343449,8.081574v.120741c0,3.803331-2.141134,5.944465-4.990614,7.011007l6.536094,10.818362h-7.019057l-5.698959-9.627055h-2.261875v9.627055h-6.656835v-26.031685ZM2018.330735,143.084158c2.607998,0,4.040787-1.066542,4.040787-3.324393v-.120741c0-2.495307-1.54548-3.328417-4.040787-3.328417h-2.857529v6.773551h2.857529Z"/>
</svg>
